<?xml version="1.0" encoding="utf-8"?>
<!-- Generator: Adobe Illustrator 17.1.0, SVG Export Plug-In . SVG Version: 6.00 Build 0)  -->
<!DOCTYPE svg PUBLIC "-//W3C//DTD SVG 1.1//EN" "http://www.w3.org/Graphics/SVG/1.1/DTD/svg11.dtd">
<svg version="1.1" id="Layer_1" xmlns="http://www.w3.org/2000/svg" xmlns:xlink="http://www.w3.org/1999/xlink" x="0px" y="0px"
	 viewBox="0 0 56.4 35.8" enable-background="new 0 0 56.4 35.8" xml:space="preserve">
<g>
	<path fill="#ADADAD" d="M28.2,35.6C16.6,35.6,6,29.2,0.5,18.9c-0.4-0.7-0.4-1.6,0-2.3C6,6.3,16.6-0.1,28.2-0.1
		c11.6,0,22.2,6.4,27.7,16.7c0.4,0.7,0.4,1.6,0,2.3C50.4,29.2,39.8,35.6,28.2,35.6z M5.5,17.8c4.8,8,13.3,12.9,22.7,12.9
		c9.4,0,18-4.9,22.7-12.9c-4.8-8-13.3-12.9-22.7-12.9C18.8,4.8,10.2,9.7,5.5,17.8z"/>
</g>
<g>
	<circle fill="#ADADAD" cx="28.2" cy="17.8" r="11.5"/>
</g>
</svg>
