<?xml version="1.0" encoding="utf-8"?>
<!-- Generator: Adobe Illustrator 17.1.0, SVG Export Plug-In . SVG Version: 6.00 Build 0)  -->
<!DOCTYPE svg PUBLIC "-//W3C//DTD SVG 1.1//EN" "http://www.w3.org/Graphics/SVG/1.1/DTD/svg11.dtd">
<svg version="1.1" id="Layer_1" xmlns="http://www.w3.org/2000/svg" xmlns:xlink="http://www.w3.org/1999/xlink" x="0px" y="0px"
	 viewBox="0 0 56.4 71.7" enable-background="new 0 0 56.4 71.7" xml:space="preserve">
<g>
	<path fill="#757576" d="M28.2,35.7C16.6,35.7,6,29.3,0.5,19c-0.4-0.7-0.4-1.6,0-2.3C6,6.4,16.6,0,28.2,0c11.6,0,22.2,6.4,27.7,16.7
		c0.4,0.7,0.4,1.6,0,2.3C50.4,29.3,39.8,35.7,28.2,35.7z M5.5,17.8c4.8,8,13.3,12.9,22.7,12.9c9.4,0,18-4.9,22.7-12.9
		c-4.8-8-13.3-12.9-22.7-12.9C18.8,4.9,10.2,9.8,5.5,17.8z"/>
</g>
<g>
	<circle fill="#757576" cx="28.2" cy="17.8" r="11.5"/>
</g>
<g>
	<path fill="#ADADAD" d="M28.2,71.4C16.6,71.4,6,65,0.5,54.7c-0.4-0.7-0.4-1.6,0-2.3C6,42.2,16.6,35.8,28.2,35.8
		c11.6,0,22.2,6.4,27.7,16.7c0.4,0.7,0.4,1.6,0,2.3C50.4,65,39.8,71.4,28.2,71.4z M5.5,53.6c4.8,8,13.3,12.9,22.7,12.9
		c9.4,0,18-4.9,22.7-12.9c-4.8-8-13.3-12.9-22.7-12.9C18.8,40.7,10.2,45.6,5.5,53.6z"/>
</g>
<g>
	<path fill="#ADADAD" d="M28.2,67.5c-7.7,0-13.9-6.2-13.9-13.9c0-7.7,6.2-13.9,13.9-13.9c7.7,0,13.9,6.2,13.9,13.9
		C42.1,61.3,35.9,67.5,28.2,67.5z M28.2,44.6c-5,0-9,4-9,9c0,5,4,9,9,9c5,0,9-4,9-9C37.2,48.6,33.2,44.6,28.2,44.6z"/>
</g>
</svg>
