<?xml version="1.0" encoding="utf-8"?>
<!-- Generator: Adobe Illustrator 17.1.0, SVG Export Plug-In . SVG Version: 6.00 Build 0)  -->
<!DOCTYPE svg PUBLIC "-//W3C//DTD SVG 1.1//EN" "http://www.w3.org/Graphics/SVG/1.1/DTD/svg11.dtd">
<svg version="1.1" id="Layer_1" xmlns="http://www.w3.org/2000/svg" xmlns:xlink="http://www.w3.org/1999/xlink" x="0px" y="0px"
	 viewBox="269.2 318.1 918.3 132.9" enable-background="new 269.2 318.1 918.3 132.9" xml:space="preserve">
<symbol  id="Pip" viewBox="-21 -31.4 42 62.8">
	<path fill="#FFFFFF" d="M0,31.4c-11.4,0-20.7-9.3-20.7-20.7c0-3.1,0.7-6,1.9-8.7L0-31.4L18.8,2.1c1.2,2.6,1.9,5.6,1.9,8.7
		C20.7,22.1,11.4,31.4,0,31.4z M0-0.3c-6.1,0-11,4.9-11,11s4.9,11,11,11c0.4,0,0.9,0,1.3-0.1c-0.4-0.9-0.6-2-0.6-3
		c0-4.3,3.5-7.7,7.7-7.7c0.9,0,1.8,0.2,2.6,0.5c0-0.2,0-0.4,0-0.6C11,4.7,6.1-0.3,0-0.3z"/>
	<polygon display="none" fill="none" points="-21,30.7 21,30.7 21,-31.3 -21,-31.3 	"/>
</symbol>
<g>
	
		<use xlink:href="#Pip"  width="42" height="62.8" id="XMLID_8_" x="-21" y="-31.4" transform="matrix(1.8055 0 0 -1.8055 363.5512 394.3223)" overflow="visible"/>
	<g>
		<g>
			<path fill="#FFFFFF" d="M276.6,380c-1.2,0-2.4-0.3-3.6-0.9c-3.5-2-4.8-6.4-2.8-10c17.7-31.4,53.5-50.9,93.4-50.9
				s75.7,19.5,93.4,50.9c2,3.5,0.7,8-2.8,10c-3.5,2-8,0.7-10-2.8c-14.9-26.4-46.5-43.4-80.6-43.4s-65.7,17.1-80.6,43.4
				C281.6,378.6,279.1,380,276.6,380z"/>
		</g>
		<g>
			<path fill="#FFFFFF" d="M363.6,427.2c-39.9,0-75.7-19.5-93.4-50.9c-2-3.5-0.7-8,2.8-10c3.5-2,8-0.7,10,2.8
				c14.9,26.4,46.5,43.4,80.6,43.4s65.7-17.1,80.6-43.4c2-3.5,6.5-4.8,10-2.8c3.5,2,4.8,6.4,2.8,10
				C439.2,407.7,403.5,427.2,363.6,427.2z"/>
		</g>
	</g>
</g>
<g>
	<path fill="#FFFFFF" d="M502.3,433.6l8.9-13.8c7.1,8.2,16.2,11.3,27.8,11.3c12.6,0,26-5.8,26-23.8v-10.6
		c-6.7,8.7-16.7,14.6-28.2,14.6c-22.4,0-38.9-16.2-38.9-45.1c0-28.4,16.4-45.1,38.9-45.1c11.1,0,21.1,5.1,28.2,14.4v-12.2h19.1v83.4
		c0,31.7-23.5,40.2-45.1,40.2C524.1,446.8,513,443.5,502.3,433.6z M565.1,382.5v-32.8c-4.2-6.6-13.7-11.8-22.6-11.8
		c-15.1,0-24.8,11.3-24.8,28.2c0,16.9,9.6,28.2,24.8,28.2C551.4,394.3,560.9,389.1,565.1,382.5z"/>
	<path fill="#FFFFFF" d="M603.5,367c0-25.5,18.6-46,44.6-46c26.4,0,43.3,20.2,43.3,47.9v4.6h-67.9c1.5,13.3,11.5,24.2,28,24.2
		c8.6,0,18.7-3.5,24.9-9.6l8.7,12.6c-8.7,8.4-21.7,12.7-35.7,12.7C623.1,413.3,603.5,394.9,603.5,367z M648.1,336.6
		c-16.4,0-23.8,12.6-24.8,23.3h49.5C672.5,349.6,665.4,336.6,648.1,336.6z"/>
	<path fill="#FFFFFF" d="M704.8,367c0-25.1,17.3-46,45.1-46c28.2,0,45.3,20.9,45.3,46c0,25.3-17.1,46.2-45.3,46.2
		C722.1,413.3,704.8,392.3,704.8,367z M775.5,367c0-15.5-9.1-29.1-25.5-29.1c-16.2,0-25.3,13.7-25.3,29.1c0,15.7,9.1,29.3,25.3,29.3
		C766.4,396.3,775.5,382.7,775.5,367z"/>
	<path fill="#FFFFFF" d="M806.9,399.6l8.7-13.8c6.2,6.4,18.4,12.4,29.8,12.4c11.5,0,17.3-4.9,17.3-11.8c0-17.3-53.1-4.9-53.1-38.6
		c0-14.4,12.4-26.8,34.6-26.8c14.9,0,26.2,5.3,34.2,12.4l-8,13.5c-5.3-6-15.1-10.6-26-10.6c-10,0-16.4,4.5-16.4,10.7
		c0,15.7,53.1,4,53.1,38.9c0,15.5-12.9,27.3-36.6,27.3C829.7,413.3,816,408.5,806.9,399.6z"/>
	<path fill="#FFFFFF" d="M959.8,411.1v-55c0-13.7-6.9-18.2-17.7-18.2c-9.8,0-18.2,5.8-22.6,11.8v61.3h-19.1v-87.9h19.1v12
		c5.8-6.9,17.1-14.2,30.9-14.2c18.9,0,28.4,10.2,28.4,28.2v61.9H959.8z"/>
	<path fill="#FFFFFF" d="M1057.4,411.1v-9.5c-6.6,7.5-16.7,11.6-28.4,11.6c-14.4,0-30.6-9.6-30.6-29.1c0-20.2,16.2-28.6,30.6-28.6
		c11.8,0,22,3.8,28.4,11.3v-13.1c0-10.2-8.4-16.4-20.6-16.4c-9.8,0-18.4,3.6-26,11.1l-7.8-13.3c10.2-9.6,22.9-14.2,36.9-14.2
		c19.5,0,36.6,8.2,36.6,31.9v58.2H1057.4z M1057.4,391.1v-13.3c-4.4-6-12.6-9.1-20.9-9.1c-10.7,0-18.7,6.2-18.7,15.8
		c0,9.5,8,15.7,18.7,15.7C1044.8,400.2,1053,397.1,1057.4,391.1z"/>
	<path fill="#FFFFFF" d="M1120.3,398.9v45.7h-19.1V323.2h19.1v12c6.6-8.7,16.7-14.2,28.2-14.2c22.8,0,38.9,17.1,38.9,46
		c0,28.9-16.2,46.2-38.9,46.2C1137.5,413.3,1127.4,408.3,1120.3,398.9z M1167.7,367c0-16.9-9.6-29.1-24.8-29.1
		c-8.9,0-18.4,5.3-22.6,11.8v34.8c4.2,6.4,13.7,11.8,22.6,11.8C1158,396.3,1167.7,384.1,1167.7,367z"/>
</g>
</svg>
