<?xml version="1.0" encoding="utf-8"?>
<!-- Generator: Adobe Illustrator 17.1.0, SVG Export Plug-In . SVG Version: 6.00 Build 0)  -->
<!DOCTYPE svg PUBLIC "-//W3C//DTD SVG 1.1//EN" "http://www.w3.org/Graphics/SVG/1.1/DTD/svg11.dtd">
<svg version="1.1" id="Layer_1" xmlns="http://www.w3.org/2000/svg" xmlns:xlink="http://www.w3.org/1999/xlink" x="0px" y="0px"
	 viewBox="0 90 612 612" enable-background="new 0 90 612 612" xml:space="preserve">
<g>
	<g>
		<path fill="#FFFFFF" d="M226.495,313.33c0,4.697-3.843,8.57-8.57,8.57h-72.798c-4.697,0-8.539-3.843-8.539-8.57v-72.829
			c0-4.666,3.843-8.539,8.539-8.539h72.798c4.697,0,8.57,3.843,8.57,8.539V313.33z"/>
	</g>
</g>
<g>
	<g>
		<path fill="#FFFFFF" d="M226.495,430.624c0,4.697-3.843,8.57-8.57,8.57h-72.798c-4.697,0-8.539-3.843-8.539-8.57v-72.798
			c0-4.697,3.843-8.539,8.539-8.539h72.798c4.697,0,8.57,3.843,8.57,8.539V430.624z"/>
	</g>
</g>
<g>
	<g>
		<path fill="#FFFFFF" d="M226.495,547.919c0,4.697-3.843,8.57-8.57,8.57h-72.798c-4.697,0-8.539-3.843-8.539-8.57v-72.798
			c0-4.697,3.843-8.57,8.539-8.57h72.798c4.697,0,8.57,3.843,8.57,8.57V547.919z"/>
	</g>
</g>
<g>
	<line fill="none" x1="275.078" y1="276.915" x2="476.944" y2="276.915"/>
	<path fill="#FFFFFF" d="M476.944,289.419H275.078c-6.893,0-12.504-5.612-12.504-12.504c0-6.893,5.612-12.504,12.504-12.504h201.865
		c6.893,0,12.504,5.612,12.504,12.504C489.417,283.808,483.836,289.419,476.944,289.419z"/>
</g>
<g>
	<line fill="none" x1="275.078" y1="394.21" x2="476.944" y2="394.21"/>
	<path fill="#FFFFFF" d="M476.944,406.714H275.078c-6.893,0-12.504-5.612-12.504-12.504s5.612-12.504,12.504-12.504h201.865
		c6.893,0,12.504,5.612,12.504,12.504C489.417,401.133,483.836,406.714,476.944,406.714z"/>
</g>
<g>
	<line fill="none" x1="275.078" y1="511.535" x2="476.944" y2="511.535"/>
	<path fill="#FFFFFF" d="M476.944,524.039H275.078c-6.893,0-12.504-5.612-12.504-12.504c0-6.893,5.612-12.504,12.504-12.504h201.865
		c6.893,0,12.504,5.612,12.504,12.504C489.417,518.428,483.836,524.039,476.944,524.039z"/>
</g>
</svg>
