<?xml version="1.0" encoding="utf-8"?>
<!-- Generator: Adobe Illustrator 17.1.0, SVG Export Plug-In . SVG Version: 6.00 Build 0)  -->
<!DOCTYPE svg PUBLIC "-//W3C//DTD SVG 1.1//EN" "http://www.w3.org/Graphics/SVG/1.1/DTD/svg11.dtd">
<svg version="1.1" id="Layer_1" xmlns="http://www.w3.org/2000/svg" xmlns:xlink="http://www.w3.org/1999/xlink" x="0px" y="0px"
	 viewBox="0 0 15 15" enable-background="new 0 0 15 15" xml:space="preserve">
<symbol  id="Pip" viewBox="-21 -30.119 42 62.801">
	<path fill="#FFFFFF" d="M0,32.682c-11.414,0-20.667-9.253-20.667-20.667c0-3.094,0.684-6.026,1.903-8.661L0-30.119L18.764,3.355
		c1.218,2.635,1.903,5.567,1.903,8.661C20.667,23.429,11.414,32.682,0,32.682z M-0.026,1.013c-6.091,0-11.029,4.938-11.029,11.029
		c0,6.091,4.938,11.029,11.029,11.029c0.442,0,0.876-0.033,1.305-0.084c-0.398-0.931-0.619-1.955-0.619-3.031
		c0-4.267,3.459-7.727,7.727-7.727c0.908,0,1.775,0.165,2.584,0.452c0.012-0.213,0.032-0.423,0.032-0.639
		C11.003,5.95,6.065,1.013-0.026,1.013z"/>
	<polygon display="none" fill="none" points="-21,32 21,32 21,-30 -21,-30 	"/>
</symbol>
<g>
	
		<use xlink:href="#Pip"  width="42" height="62.801" id="XMLID_8_" x="-21" y="-30.119" transform="matrix(0.1263 0 0 -0.1263 7.5 9.1172)" overflow="visible"/>
	<g>
		<g>
			<path fill="#FFFFFF" d="M1.415,7.951c-0.085,0-0.171-0.021-0.251-0.066C0.917,7.746,0.83,7.434,0.969,7.187
				C2.206,4.991,4.709,3.626,7.5,3.626c2.791,0,5.294,1.365,6.531,3.561c0.139,0.247,0.052,0.559-0.195,0.698
				c-0.246,0.139-0.559,0.051-0.698-0.195C12.099,5.844,9.885,4.651,7.5,4.651S2.901,5.844,1.861,7.69
				C1.767,7.857,1.593,7.951,1.415,7.951z"/>
		</g>
		<g>
			<path fill="#FFFFFF" d="M7.5,11.252c-2.791,0-5.294-1.365-6.531-3.561C0.83,7.445,0.917,7.132,1.164,6.993
				C1.41,6.855,1.722,6.942,1.861,7.188c1.04,1.846,3.253,3.039,5.639,3.039s4.599-1.193,5.639-3.039
				c0.139-0.246,0.452-0.334,0.698-0.195c0.247,0.139,0.334,0.451,0.195,0.698C12.794,9.888,10.292,11.252,7.5,11.252z"/>
		</g>
	</g>
</g>
</svg>
