<?xml version="1.0" encoding="utf-8"?>
<!-- Generator: Adobe Illustrator 17.1.0, SVG Export Plug-In . SVG Version: 6.00 Build 0)  -->
<!DOCTYPE svg PUBLIC "-//W3C//DTD SVG 1.1//EN" "http://www.w3.org/Graphics/SVG/1.1/DTD/svg11.dtd">
<svg version="1.1" id="Layer_1" xmlns="http://www.w3.org/2000/svg" xmlns:xlink="http://www.w3.org/1999/xlink" x="0px" y="0px"
	 viewBox="0 0 40.3 35.8" enable-background="new 0 0 40.3 35.8" xml:space="preserve">
<path fill="#E03490" d="M40.3,10.8c0-6-4.7-10.8-10.5-10.8c-4.3,0-7.9,2.6-9.6,6.3C18.5,2.5,14.8,0,10.5,0C4.7,0,0,4.8,0,10.8
	c0,2.6,0.9,5.1,2.5,6.9c0.1,0.1,0.1,0.2,0.2,0.2l0,0l0,0c0.2,0.3,0.5,0.5,0.8,0.8L20.1,36l17.1-17.6l0,0c0.2-0.2,0.4-0.4,0.6-0.7
	C39.3,15.8,40.3,13.4,40.3,10.8z"/>
</svg>
