<?xml version="1.0" encoding="utf-8"?>
<!-- Generator: Adobe Illustrator 17.1.0, SVG Export Plug-In . SVG Version: 6.00 Build 0)  -->
<!DOCTYPE svg PUBLIC "-//W3C//DTD SVG 1.1//EN" "http://www.w3.org/Graphics/SVG/1.1/DTD/svg11.dtd">
<svg version="1.1" id="Layer_1" xmlns="http://www.w3.org/2000/svg" xmlns:xlink="http://www.w3.org/1999/xlink" x="0px" y="0px"
	 viewBox="0 0 40.5 35.8" enable-background="new 0 0 40.5 35.8" xml:space="preserve">
<g>
	<path fill="#ADADAD" d="M20.3,35.9L20.3,35.9c-0.5,0-1-0.2-1.4-0.6L3.7,20.1c-0.3-0.3-0.5-0.5-0.8-0.8c0,0,0,0,0,0h0
		c-0.1-0.1-0.2-0.2-0.2-0.3C1,17,0,14.3,0,11.6C0,5.3,5.2,0.1,11.5,0.1c3.4,0,6.6,1.5,8.7,4c2.2-2.5,5.3-4,8.7-4
		c6.4,0,11.5,5.2,11.5,11.5c0,2.7-1,5.3-2.7,7.4c-0.2,0.2-0.4,0.4-0.6,0.6c0,0-0.1,0.1-0.1,0.1L21.6,35.3
		C21.3,35.7,20.8,35.9,20.3,35.9z M5.8,16.7C5.8,16.7,5.9,16.7,5.8,16.7c0.2,0.2,0.4,0.4,0.6,0.6c0,0,0,0,0.1,0.1l13.8,13.9
		l14.1-14.1c0,0,0.1-0.1,0.1-0.1c0.2-0.2,0.3-0.3,0.4-0.5c1.1-1.4,1.8-3.1,1.8-4.9C36.6,7.4,33.2,4,29,4c-3,0-5.7,1.8-6.9,4.5
		c-0.3,0.7-1,1.1-1.8,1.1c-0.8,0-1.5-0.4-1.8-1.1c-1.2-2.7-4-4.5-6.9-4.5c-4.2,0-7.6,3.4-7.6,7.6c0,1.8,0.6,3.5,1.8,4.9L5.8,16.7
		C5.8,16.7,5.8,16.7,5.8,16.7z"/>
</g>
</svg>
