<?xml version="1.0" encoding="utf-8"?>
<!-- Generator: Adobe Illustrator 17.1.0, SVG Export Plug-In . SVG Version: 6.00 Build 0)  -->
<!DOCTYPE svg PUBLIC "-//W3C//DTD SVG 1.1//EN" "http://www.w3.org/Graphics/SVG/1.1/DTD/svg11.dtd">
<svg version="1.1" id="Layer_1" xmlns="http://www.w3.org/2000/svg" xmlns:xlink="http://www.w3.org/1999/xlink" x="0px" y="0px"
	 viewBox="0 90 612 612" enable-background="new 0 90 612 612" xml:space="preserve">
<path fill="#FFFFFF" d="M477.037,435.132l-38.866-24.824c0.998-9.151,1.065-18.302,0.166-27.286l39.032-24.424
	c1.331-0.832,1.83-2.595,1.165-4.159l-20.198-49.581c-0.632-1.564-2.229-2.496-3.76-2.163l-44.989,9.916
	c-5.657-7.054-12.112-13.543-19.2-19.4l10.349-44.889c0.333-1.497-0.532-3.095-2.096-3.76l-49.348-20.731
	c-1.564-0.666-3.328-0.166-4.159,1.131l-24.824,38.866c-4.758-0.532-9.517-0.799-14.242-0.799c-4.359,0-8.685,0.299-12.978,0.732
	l-24.491-39.132c-0.832-1.331-2.562-1.83-4.159-1.165l-49.581,20.198c-1.531,0.632-2.462,2.196-2.13,3.727l9.949,45.089
	c-7.021,5.657-13.543,12.013-19.366,19.1l-44.922-10.349c-1.531-0.333-3.128,0.566-3.76,2.13l-20.797,49.315
	c-0.666,1.564-0.166,3.328,1.131,4.159l38.833,24.824c-0.998,9.151-1.032,18.302-0.166,27.286l-38.999,24.424
	c-1.331,0.832-1.83,2.596-1.165,4.159l20.198,49.581c0.632,1.564,2.229,2.496,3.76,2.163l44.989-9.916
	c5.657,7.054,12.079,13.543,19.2,19.4l-10.349,44.889c-0.333,1.497,0.532,3.095,2.096,3.76l49.315,20.764
	c1.564,0.666,3.328,0.166,4.159-1.131l24.824-38.833c4.758,0.532,9.55,0.799,14.275,0.799c4.359,0,8.685-0.299,12.978-0.732
	l24.458,39.099c0.832,1.331,2.596,1.83,4.159,1.165l49.581-20.198c1.564-0.632,2.496-2.229,2.163-3.76l-9.949-45.089
	c7.054-5.657,13.543-12.013,19.4-19.134l44.922,10.349c1.497,0.333,3.095-0.532,3.76-2.096l20.764-49.315
	C478.801,437.761,478.335,435.964,477.037,435.132z M274.255,471.536c-20.198-8.485-35.871-24.291-44.124-44.589
	c-8.286-20.265-8.153-42.526,0.333-62.691c12.811-30.514,42.493-50.213,75.602-50.213c10.881,0,21.529,2.163,31.678,6.422
	c20.198,8.452,35.871,24.291,44.124,44.556c8.286,20.265,8.153,42.56-0.333,62.725c-12.811,30.514-42.493,50.246-75.602,50.246
	C295.086,477.991,284.404,475.828,274.255,471.536z"/>
</svg>
